<svg height="511pt" viewBox="-8 0 511 511.99838" width="511pt" xmlns="http://www.w3.org/2000/svg"><path d="m148.878906 298.851562-.378906 53.585938-73.933594 103.792969c-11.304687 15.875-7.601562 37.910156 8.269532 49.214843 15.875 11.308594 37.910156 7.605469 49.214843-8.269531 84.945313-119.441406 80.460938-112.53125 82.566407-116.371093l-12.140626-28.789063zm0 0"/><path d="m486.671875 197.28125c8.960937-8.027344 12.40625-21.097656 7.652344-32.898438-4.867188-12.078124-16.839844-19.148437-29.160157-18.355468.1875 3.722656-.054687 7.488281-.753906 11.234375zm0 0"/><path d="m407.898438 195.523438c-10.859376-2.167969-20.691407-7.984376-27.820313-16.808594l-13.84375 5.574218-19.957031-38.726562c.710937-4.207031.78125-8.503906.179687-12.726562-23.851562-10.007813-41.828125-31.289063-46.632812-58.449219l-16.316407-16.398438c-14.15625-14.226562-36.628906-16.242187-53.136718-4.429687l26.863281 14.875-102.203125-37.457032c-5.53125-2.027343-11.542969-2.34375-17.253906-.917968l-114.996094 28.746094c-15.757812 3.941406-25.335938 19.90625-21.398438 35.664062 3.9375 15.753906 19.894532 25.335938 35.664063 21.394531l106.226563-26.554687 93.722656 34.347656-63.609375-12.683594-71.042969 73.378906c-21.972656 22.695313-18.796875 59.574219 6.734375 78.175782 45.894531 33.4375 99.957031 72.824218 112.433594 81.929687l61.542969 145.953125c7.53125 17.867188 28.183593 26.414063 46.226562 18.804688 17.957031-7.574219 26.375-28.269532 18.804688-46.226563l-65.347657-154.976562c-2.488281-5.902344-6.539062-11.019531-11.714843-14.792969l-108.761719-79.367188 82.914062 43.109376 61.039063-60.738282 20.011718 38.832032c6.957032 13.5 23.046876 19.480468 37.132813 13.804687l66.214844-26.683594zm0 0"/><path d="m347.152344 114.304688c9.28125 5.128906 19.648437 7.761718 30.320312 7.597656 10.242188-15.328125 27.90625-22.949219 45.183594-20.988282 2.746094-3.167968 5.203125-6.671874 7.3125-10.488281 16.277344-29.464843 5.585938-66.542969-23.878906-82.816406-29.460938-16.273437-66.542969-5.585937-82.816406 23.878906-16.277344 29.464844-5.585938 66.542969 23.878906 82.816407zm0 0"/><path d="m495.445312 248.058594-49.265624-88.566406c6.667968-17.632813-3.777344-36.8125-21.832032-41.046876-16.683594-3.917968-33.261718 6.480469-37.144531 23.027344-4.496094 19.160156 9.824219 37.59375 29.542969 37.960938l63.941406 78.621094c2.695312 3.324218 7.453125 4.308593 11.289062 2.175781 4.316407-2.40625 5.871094-7.851563 3.46875-12.171875zm0 0"/></svg>