<svg height="512" viewBox="0 0 55 56" width="512" xmlns="http://www.w3.org/2000/svg"><g id="005---Hip-Hop"><path id="Shape" d="m6.2 48c.21.12 2.07 1.11 2.17 1.11.61.28 1.45.21 1.65-.34.1440415-.6273126-.20397588-1.2631963-.81-1.48-.69-.32-1.38-.67-2-1-.5378985-.363956-1.26125576-.2788552-1.7.2-.37.4.09 1.14.69 1.51z"/><path id="Shape" d="m46.86 20.48c-.6528742-.8572121-1.8560523-1.0664604-2.76-.48l-4.46 5c-.3346018.7154932-.1942744 1.5631376.353056 2.1326271.5473304.5694896 1.3887413.7433299 2.116944.4373729.59-.31-.06.26 4.77-4.58.5592232-.74574.5510358-1.773266-.02-2.51z"/><path id="Shape" d="m9.62 45.22.44.22c1.1988984.5193443 1.9817201 1.6935768 2 3 .57.2 1.15.39 1.72.56.7818295-1.0162133 2.07259-1.500733 3.33-1.25.7.14 1.4.25 2.08.33 1.2720305.124981 2.3620937.9628944 2.81 2.16h1.77c.4132975-1.2148739 1.486079-2.0855372 2.76-2.24 1.24-.15 1.8-.29 2.37-.35l.57-.79c-4-.43-5.74-2.11-5.82-2.19-.2536586-.2518722-.3536765-.619937-.262378-.9655479.0912984-.3456109.3600429-.6162614.705-.71.344957-.0937387.7137194.0036757.967378.2555479.05 0 1.89 1.71 6.3 1.71h.12c.06 0 6.14.48 13.29-10.26-1.3001212.1475047-2.5867367-.3719365-3.4200197-1.3807537-.8332831-1.0088173-1.1003785-2.370382-.7099803-3.6192463-1.8527531-.3389213-3.1965346-1.9565142-3.19-3.84.0065923-.6591136.1970764-1.3032962.55-1.86.22-.31-1.21 1.34 16.39-18.48.5787703-.64307806.770498-1.54607695.5029612-2.36884573-.2675369-.82276877-.953693-1.44030928-1.8-1.62-.8463071-.17969071-1.7241909.10576767-2.3029612.74884573-1.36 1.5.56-.63-16.68 18.44-.2325515.2895852-.6064394.4264326-.9709842.3553919-.3645449-.0710407-.6596891-.3382659-.7664874-.6939818-.1067984-.355716-.0076562-.7413197.2574716-1.0014101l15.85-17.59c0-1.42-2.47-2.28-3.73-1.48-.7.43.5-.6-21.6 19.78 3.1 3.66 4.51 7.13 4.16 10.29-.2289447 2.1398329-1.3103543 4.0971842-3 5.43-.4463148.2643322-1.020651.1435146-1.3226421-.2782316s-.2313663-1.0043876.1626421-1.3417684c1.2231883-1.0162575 1.9928966-2.4765451 2.14-4.06.29-2.79-1.16-6-4.3-9.46-.1213636-.1485644-.2069049-.3230687-.25-.51-1.13-7.16-8.48-10.54-10.74-7.24-.26665517.4154801-.19020348.9633839.18 1.29 1.88 1.69 4.92 5.23 4.14 10-.83 4.93-1.76 10.52.09 12.59.6602269.7276668.7146506 1.8203278.13 2.61z"/><path id="Shape" d="m45.71 32.23 4-4c.6290979-.6095923.8013415-1.5515629.4286718-2.3443329s-1.2078956-1.2611438-2.0786718-1.1656671c-4.14 4.13-4.12 4.22-4.87 4.6l-.25.28c-.678069.7548046-.6517854 1.9069031.06 2.63.7536191.7355049 1.9563809.7355049 2.71 0z"/><path id="Shape" d="m24.77 53.37-.19-.13c-.3174416-.2769747-.572988-.6177032-.75-1-1.21 0-.72 0-1.94 0-.5563053 1.1378096-1.7347592 1.8370256-3 1.78-.9700616-.0841046-1.9348234-.2209739-2.89-.41-1.4074255-.218361-2.511639-1.3225745-2.73-2.73-.63-.18-1.26-.38-1.88-.6-.2784919.3057182-.6195573.5478746-1 .71-1.68.7-3.08-.2-4.7-1.07l-5.18 6.08h22.34z"/><path id="Shape" d="m16.74 49.68c-.6084918-.1550927-1.2396336.1541245-1.49.73-.15.56.45 1.11 1.11 1.23.93.18 2.25.37 2.35.37.66.08 1.4-.26 1.42-.83-.0188096-.6247126-.5066863-1.1341769-1.13-1.18-.78-.06-1.53-.18-2.26-.32z"/><path id="Shape" d="m29 49.68c-.74.14-1.48.26-2.22.35-1 .11-1.57 1.11-.89 1.69.317464.2384442.7174207.3393342 1.11.28.79-.09 1.58-.22 2.36-.37.4050867-.0654053.7661118-.2928511 1-.63.49-.77-.44-1.5-1.36-1.32z"/></g></svg>